<svg xmlns="http://www.w3.org/2000/svg" viewBox="0 0 512 512" style="height: 512px; width: 512px;"><defs><linearGradient x1="0" x2="1" y1="0" y2="1" id="delapouite-weight-gradient-1"><stop offset="0%" stop-color="#a3bbd8" stop-opacity="1"></stop><stop offset="100%" stop-color="#5e82af" stop-opacity="1"></stop></linearGradient><linearGradient x1="0" x2="1" y1="0" y2="1" id="delapouite-weight-gradient-2"><stop offset="0%" stop-color="#a3bbd8" stop-opacity="1"></stop><stop offset="100%" stop-color="#5e82af" stop-opacity="1"></stop></linearGradient><linearGradient x1="0" x2="1" y1="0" y2="1" id="delapouite-weight-gradient-4"><stop offset="0%" stop-color="#a3bbd8" stop-opacity="0.06"></stop><stop offset="100%" stop-color="#3d4044" stop-opacity="0"></stop></linearGradient><linearGradient x1="0" x2="1" y1="0" y2="1" id="delapouite-weight-gradient-5"><stop offset="0%" stop-color="#a3bbd8" stop-opacity="0.01"></stop><stop offset="100%" stop-color="#5e82af" stop-opacity="0"></stop></linearGradient><linearGradient x1="0" x2="1" y1="0" y2="1" id="delapouite-weight-gradient-6"><stop offset="0%" stop-color="#a3bbd8" stop-opacity="0"></stop><stop offset="100%" stop-color="#5e82af" stop-opacity="0"></stop></linearGradient></defs><g class="" transform="translate(0,0)" style=""><g><path d="M256 46C210.926 46 174 82.926 174 128C174 153.812 186.123 176.936 204.938 192L128 192L32 480L480 480L384 192L307.062 192C325.877 176.936 338 153.812 338 128C338 82.926 301.074 46 256 46Z" class="selected" fill="url(#delapouite-weight-gradient-2)" stroke="#ffffff" stroke-opacity="1" stroke-width="8"></path><path d="M256 82C281.618 82 302 102.382 302 128C302 153.618 281.618 174 256 174C230.382 174 210 153.618 210 128C210 102.382 230.382 82 256 82Z" class="" fill="#ffffff" fill-opacity="0" stroke="#ffffff" stroke-opacity="1" stroke-width="8"></path><path d="M173.785 284.95L197.285 284.95L197.285 318.213L231.158 284.949L258.441 284.949L214.558 328.099L262.958 376.073L233.54 376.073L197.285 340.185L197.285 376.073L173.785 376.073L173.785 284.95Z" class="" fill="url(#delapouite-weight-gradient-4)"></path><path d="M293.719 306.19C298.479 306.19 302.671 307.124 306.292 308.996C309.912 310.868 313.23 313.816 316.242 317.846L316.242 307.716L338.214 307.716L338.214 369.178C338.214 380.164 334.734 388.546 327.776 394.324C320.859 400.144 310.808 403.051 297.624 403.051C293.352 403.051 289.224 402.726 285.234 402.075C281.248 401.425 277.238 400.428 273.21 399.085L273.21 382.055C277.036 384.253 280.78 385.881 284.44 386.939C288.104 388.037 291.787 388.587 295.49 388.587C302.652 388.587 307.9 387.021 311.236 383.887C314.573 380.755 316.242 375.852 316.242 369.179L316.242 364.479C313.232 368.465 309.914 371.395 306.292 373.267C302.672 375.137 298.479 376.075 293.719 376.075C285.376 376.075 278.481 372.8 273.029 366.249C267.576 359.657 264.849 351.275 264.849 341.103C264.849 330.889 267.576 322.527 273.029 316.017C278.481 309.467 285.376 306.19 293.719 306.19Z" class="" fill="url(#delapouite-weight-gradient-5)"></path><path d="M301.837 321.936C297.32 321.936 293.799 323.606 291.277 326.941C288.754 330.279 287.493 334.999 287.493 341.103C287.493 347.369 288.713 352.129 291.155 355.383C293.597 358.598 297.158 360.206 301.837 360.206C306.394 360.206 309.933 358.536 312.457 355.2C314.979 351.863 316.241 347.164 316.241 341.102C316.241 334.998 314.979 330.278 312.456 326.942C309.933 323.605 306.394 321.936 301.836 321.936Z" class="" fill="url(#delapouite-weight-gradient-6)"></path></g></g></svg>